<?xml version="1.0" ?><svg viewBox="0 0 22.078 22.079" xmlns="http://www.w3.org/2000/svg"><g data-name="Layer 2" id="Layer_2"><g data-name="Layer 1" id="Layer_1-2"><path d="M20.852,2.23h-3.68V.669h.557a.335.335,0,0,0,0-.669H4.349a.335.335,0,0,0,0,.669h.558V2.23H1.227A1.228,1.228,0,0,0,0,3.456V7.025a4.805,4.805,0,0,0,4.92,4.794,4.341,4.341,0,0,0,2.96,3.793,1.453,1.453,0,0,1,1.041,1.371v1.3H5.241a.334.334,0,0,0-.334.334V21.41H4.349a.335.335,0,0,0,0,.669h13.38a.335.335,0,0,0,0-.669h-.557V18.622a.335.335,0,0,0-.335-.334H13.158v-1.3a1.473,1.473,0,0,1,1.04-1.371,4.344,4.344,0,0,0,2.961-3.793,4.8,4.8,0,0,0,4.919-4.794V3.456A1.227,1.227,0,0,0,20.852,2.23ZM4.907,11.15A4.136,4.136,0,0,1,.669,7.025V3.456A.558.558,0,0,1,1.227,2.9h3.68ZM16.5,21.41H5.575V18.957H16.5Zm0-9.925a3.674,3.674,0,0,1-2.517,3.492,2.14,2.14,0,0,0-1.5,2.006v1.3h-2.9v-1.3a2.138,2.138,0,0,0-1.5-2.006,3.675,3.675,0,0,1-2.517-3.492V.669H16.5Zm4.906-4.46a4.134,4.134,0,0,1-4.237,4.125V2.9h3.68a.558.558,0,0,1,.557.557ZM10.06,15.485a8.571,8.571,0,0,1-.693-4V2.119a.335.335,0,0,1,.669,0v9.366A8.29,8.29,0,0,0,10.61,15.1a4.175,4.175,0,0,1,.352,1.879.335.335,0,0,1-.669,0A3.448,3.448,0,0,0,10.06,15.485Z" data-name="sports scholarships" id="sports_scholarships"/></g></g></svg>