<?xml version="1.0" ?><svg viewBox="0 0 22.465 22.407" xmlns="http://www.w3.org/2000/svg"><g data-name="Layer 2" id="Layer_2"><g data-name="Layer 1" id="Layer_1-2"><path d="M11.233,0A11.246,11.246,0,0,0,0,11.233c.617,14.9,21.851,14.9,22.465,0A11.245,11.245,0,0,0,11.233,0Zm0,21.784A10.563,10.563,0,0,1,.681,11.233c.579-14,20.526-13.994,21.1,0A10.564,10.564,0,0,1,11.233,21.784Zm7.616-10.792L14.3,6.446a.339.339,0,0,0-.24-.1H10.426a.342.342,0,0,0-.24.581L12.562,9.3h-8.7a.34.34,0,0,0-.341.34v3.177a.34.34,0,0,0,.341.34h8.7l-2.376,2.376a.343.343,0,0,0,.24.581h3.637a.336.336,0,0,0,.24-.1l4.546-4.545A.341.341,0,0,0,18.849,10.992Zm-4.927,4.445H11.248l2.376-2.375a.342.342,0,0,0-.241-.581H4.2v-2.5h9.185a.343.343,0,0,0,.241-.582L11.248,7.028h2.674l4.2,4.205Z" id="next"/></g></g></svg>